<?xml version="1.0" encoding="UTF-8" standalone="no"?>
<!-- Created with Inkscape (http://www.inkscape.org/) -->

<svg
   width="128"
   height="42"
   viewBox="0 0 128 42"
   version="1.1"
   id="svg1"
   inkscape:version="1.3.2 (091e20e, 2023-11-25)"
   sodipodi:docname="logo_moche.svg"
   xmlns:inkscape="http://www.inkscape.org/namespaces/inkscape"
   xmlns:sodipodi="http://sodipodi.sourceforge.net/DTD/sodipodi-0.dtd"
   xmlns="http://www.w3.org/2000/svg"
   xmlns:svg="http://www.w3.org/2000/svg">
  <sodipodi:namedview
     id="namedview1"
     pagecolor="#ffffff"
     bordercolor="#000000"
     borderopacity="0.25"
     inkscape:showpageshadow="2"
     inkscape:pageopacity="0.0"
     inkscape:pagecheckerboard="0"
     inkscape:deskcolor="#d1d1d1"
     inkscape:document-units="px"
     inkscape:zoom="1"
     inkscape:cx="63.5"
     inkscape:cy="21"
     inkscape:window-width="1850"
     inkscape:window-height="1016"
     inkscape:window-x="70"
     inkscape:window-y="27"
     inkscape:window-maximized="1"
     inkscape:current-layer="g16"
     showgrid="false" />
  <defs
     id="defs1" />
  <g
     inkscape:label="Calque 1"
     inkscape:groupmode="layer"
     id="layer1">
    <g
       id="g16"
       transform="matrix(1.4380443,0,0,1.4380443,-12.256742,-18.694588)">
      <path
         id="text13"
         style="font-style:normal;font-variant:normal;font-weight:normal;font-stretch:normal;font-size:27.1454px;line-height:0;font-family:Ubuntu;-inkscape-font-specification:'Ubuntu, Normal';font-variant-ligatures:normal;font-variant-caps:normal;font-variant-numeric:normal;font-variant-east-asian:normal;text-align:center;letter-spacing:0px;text-anchor:middle;fill:#3b82f6;fill-opacity:1;stroke:none;stroke-width:0.848296;stroke-linecap:square;stroke-linejoin:miter;stroke-dasharray:none;stroke-dashoffset:0;stroke-opacity:1"
         d="m 83.345625,17.454 c -1.972558,0 -3.520573,0.461826 -4.642578,1.384765 -1.122006,0.922943 -1.683594,2.208656 -1.683594,3.855469 0,0.796261 0.127505,1.474152 0.380859,2.035157 0.271454,0.561001 0.633515,1.05057 1.085938,1.466796 0.45242,0.398132 0.98627,0.750947 1.601562,1.058594 0.615295,0.289551 1.265445,0.55185 1.953125,0.78711 0.597198,0.217159 1.158786,0.433227 1.683594,0.65039 0.542904,0.217163 1.023227,0.479462 1.439453,0.78711 0.416229,0.289547 0.741303,0.642367 0.976563,1.058593 0.253353,0.398132 0.380859,0.887699 0.380859,1.466797 0,1.882073 -1.376231,2.822266 -4.126953,2.822266 -1.230587,0 -2.270542,-0.144043 -3.121094,-0.433594 -0.850552,-0.289551 -1.484164,-0.551852 -1.90039,-0.787109 l -0.78711,2.171875 c 0.199066,0.108581 0.470615,0.243377 0.814453,0.40625 0.361939,0.144772 0.786774,0.290774 1.275391,0.435546 0.488614,0.126679 1.040955,0.233735 1.65625,0.324219 0.633389,0.108582 1.320529,0.164063 2.0625,0.164063 2.189721,0 3.881778,-0.443333 5.076172,-1.330078 1.21249,-0.886746 1.818359,-2.153965 1.818359,-3.800782 0,-0.886745 -0.134796,-1.638611 -0.40625,-2.253906 -0.271454,-0.633389 -0.661255,-1.17453 -1.167969,-1.626953 -0.488613,-0.452423 -1.075989,-0.842224 -1.763672,-1.167969 -0.669582,-0.325741 -1.412204,-0.650821 -2.226562,-0.976562 -0.579098,-0.217163 -1.112949,-0.435181 -1.601562,-0.652344 -0.47052,-0.217163 -0.886112,-0.451721 -1.248047,-0.705078 -0.361939,-0.271454 -0.642731,-0.57999 -0.841797,-0.923828 -0.199066,-0.343842 -0.298828,-0.768677 -0.298828,-1.275391 0,-0.45242 0.09051,-0.842224 0.271484,-1.167969 0.199066,-0.343838 0.461368,-0.624637 0.787109,-0.841796 0.325745,-0.217163 0.706302,-0.3797 1.140625,-0.488282 0.434326,-0.108581 0.905396,-0.162109 1.41211,-0.162109 4.285022,-9.25e-4 10.522049,0.364363 10.522049,0.364363 l -0.463016,-2.270918 c 0,0 -6.373863,-0.24756 -10.059033,-0.374695 z m -49.40625,0.244141 c -0.760068,0 -1.600498,0.03699 -2.523438,0.109374 -0.904842,0.05429 -1.728732,0.172547 -2.470703,0.353516 v 18.539063 h 2.632813 v -6.976563 h 2.089843 c 1.321072,0 2.507023,-0.107056 3.556641,-0.324219 1.049618,-0.21716 1.936283,-0.56073 2.660156,-1.03125 0.741974,-0.488613 1.303559,-1.112976 1.683594,-1.873047 0.398132,-0.778164 0.597656,-1.711066 0.597656,-2.796874 0,-1.990658 -0.714878,-3.483189 -2.144531,-4.478516 -1.411556,-1.013424 -3.439891,-1.521484 -6.082031,-1.521484 z m 16.505859,0 c -0.760067,0 -1.602448,0.03699 -2.525391,0.109374 -0.904842,0.05429 -1.728729,0.172547 -2.470703,0.353516 v 18.539063 h 2.632813 v -7.355469 h 2.363281 0.732422 c 0.253357,0 0.497162,-0.0092 0.732422,-0.02734 0.343841,0.416229 0.724396,0.90384 1.140625,1.464844 0.434323,0.561001 0.868411,1.168826 1.302734,1.820312 0.434326,0.633392 0.859162,1.302036 1.275391,2.007813 0.434323,0.705777 0.833377,1.402161 1.195312,2.089844 h 2.876953 c -0.325741,-0.723885 -0.724792,-1.473793 -1.195312,-2.251957 -0.452423,-0.778168 -0.912296,-1.520786 -1.382812,-2.226563 -0.47052,-0.723874 -0.932346,-1.37598 -1.384766,-1.955078 -0.434326,-0.597198 -0.796387,-1.075562 -1.085938,-1.4375 1.284878,-0.434326 2.252811,-1.095676 2.904297,-1.982422 0.669586,-0.886746 1.003906,-1.954441 1.003907,-3.203125 0,-1.972558 -0.696388,-3.455845 -2.089844,-4.451172 -1.375363,-0.995327 -3.38325,-1.49414 -6.025391,-1.49414 z m -34.041015,0.191406 c -0.651489,1.357262 -1.275852,2.73154 -1.873047,4.125 -0.597199,1.375359 -1.203065,2.823612 -1.81836,4.34375 -0.597195,1.520135 -1.212314,3.130927 -1.845703,4.832031 C 10.23372,32.873335 9.553873,34.709439 8.83,36.700094 h 2.742187 l 1.710938,-4.804688 h 8.523437 c 0.289551,0.814358 0.570343,1.619755 0.841797,2.416016 0.271454,0.778164 0.55954,1.57431 0.867188,2.388672 h 2.878906 c -0.723874,-1.990655 -1.403717,-3.826759 -2.03711,-5.509766 -0.633389,-1.701104 -1.257754,-3.311896 -1.873046,-4.832031 -0.597199,-1.520138 -1.193821,-2.968391 -1.791016,-4.34375 -0.597195,-1.39346 -1.221561,-2.767738 -1.873047,-4.125 z m 46.11914,0 v 18.810547 h 12.16211 V 34.148 h -9.527344 v -6.215485 h 7.871094 V 25.733297 H 65.158125 V 20.1415 h 8.847656 v -2.251953 z m -28.365234,2.117187 c 0.705776,0 1.374423,0.05353 2.007812,0.16211 0.633392,0.108581 1.185733,0.308105 1.65625,0.597656 0.488617,0.271454 0.869175,0.642764 1.140625,1.113281 0.289551,0.47052 0.433594,1.067139 0.433594,1.791016 0,0.760067 -0.136749,1.38443 -0.408203,1.873047 -0.271454,0.488613 -0.659302,0.878421 -1.166016,1.167968 -0.488613,0.271454 -1.094486,0.469028 -1.818359,0.595703 -0.723874,0.108582 -1.538517,0.164063 -2.443359,0.164063 h -1.982422 v -7.384766 c 0.597195,-0.05429 1.458072,-0.08008 2.580078,-0.08008 z m 16.503906,0 c 0.705777,0 1.365174,0.05353 1.980469,0.16211 0.633389,0.108581 1.176483,0.298858 1.628906,0.570312 0.47052,0.271454 0.841831,0.642765 1.113281,1.113281 0.271454,0.47052 0.408203,1.057896 0.408203,1.763672 0,0.760068 -0.136749,1.375187 -0.408203,1.845703 -0.27145,0.452423 -0.659305,0.805237 -1.166015,1.058594 -0.488617,0.253357 -1.096439,0.425141 -1.820313,0.515625 -0.723873,0.09049 -1.538517,0.136719 -2.443359,0.136719 h -1.873047 v -7.085938 c 0.597195,-0.05429 1.458072,-0.08008 2.580078,-0.08008 z m -33.117188,0.894531 c 0.615296,1.357266 1.202671,2.777778 1.763672,4.261719 0.579102,1.465847 2.120425,5.66889 2.699527,7.243315 l -9.132075,0.175972 c 0.561005,-1.574425 2.289516,-5.95344 2.850517,-7.419287 0.579101,-1.483941 1.18497,-2.904453 1.818359,-4.261719 z"
         sodipodi:nodetypes="ssscccccccssscccccscsccccccsscsscccsscccccssccscssccccccscccccccccccscscccccccccccccccccccccccccccccssccssccsccsssccssccssccsscccccc" />
      <path
         id="path7"
         style="fill:#ffffff;fill-opacity:1;stroke:#3b82f6;stroke-width:3;stroke-linecap:square;stroke-linejoin:bevel;stroke-dasharray:none;stroke-dashoffset:0;stroke-opacity:1"
         d="M 11.600611,35.63078 H 84.844876 Z"
         sodipodi:nodetypes="ccc" />
      <g
         id="g10"
         transform="rotate(179.96465,44.070737,10.253441)">
        <path
           id="path9"
           style="fill:#ffffff;fill-opacity:1;stroke:#3b82f6;stroke-width:3;stroke-linecap:square;stroke-linejoin:miter;stroke-dasharray:none;stroke-dashoffset:0;stroke-opacity:1"
           d="m -7.785404,2.5283869 6.0099741,-6.010844 z m 1.0626946,-1.0586237 4.9494582,4.9472779 z" />
      </g>
      <circle
         style="fill:#3b82f6;fill-opacity:1;stroke:#ffffff;stroke-width:2.53873;stroke-linecap:round;stroke-linejoin:round;stroke-dasharray:none;stroke-dashoffset:0;stroke-opacity:1"
         id="circle12"
         cx="78.744843"
         cy="35.115437"
         r="5.0774751" />
      <circle
         style="fill:#3b82f6;fill-opacity:1;stroke:#ffffff;stroke-width:2.53873;stroke-linecap:round;stroke-linejoin:round;stroke-dasharray:none;stroke-dashoffset:0;stroke-opacity:1"
         id="circle13"
         cx="17.47784"
         cy="35.43784"
         r="5.0774751" />
      <circle
         style="fill:#3b82f6;fill-opacity:1;stroke:#ffffff;stroke-width:2.53873;stroke-linecap:round;stroke-linejoin:round;stroke-dasharray:none;stroke-dashoffset:0;stroke-opacity:1"
         id="circle14"
         cx="38.426842"
         cy="35.859501"
         r="5.0774751" />
      <path
         id="path1"
         style="fill:#3b82f6;fill-opacity:1;stroke:none;stroke-width:0.695389;stroke-linecap:square;stroke-linejoin:miter;stroke-dasharray:none;stroke-dashoffset:0;stroke-opacity:1"
         d="m 22.767808,28.882582 -1.775143,0.766014 2.590504,7.482184 1.55874,-1.499395 z"
         sodipodi:nodetypes="ccccc" />
      <path
         style="fill:#3b82f6;fill-opacity:1;stroke:none;stroke-width:0.695389;stroke-linecap:square;stroke-linejoin:miter;stroke-dasharray:none;stroke-dashoffset:0;stroke-opacity:1"
         d="m 11.2521,36.700094 2.480069,-6.39586 -1.917756,-0.01304 -1.718101,5.339587 z"
         id="path2"
         sodipodi:nodetypes="ccccc" />
    </g>
  </g>
</svg>
